<svg width="24" height="24" viewBox="0 0 24 24" fill="none" xmlns="http://www.w3.org/2000/svg">
  <g clip-path="url(#clip0_2185_567513)">
    <path d="M0 4H24V20.0002H0V4Z" fill="#F0F0F0"></path>
    <path d="M13.5 4H10.5V10.5H0V13.5H10.5V19.9999H13.5V13.5H24V10.5H13.5V4Z" fill="#D80027"></path>
    <path
      d="M18.4594 14.7822L24.0007 17.8608V14.7822H18.4594ZM14.6094 14.7822L24.0007 19.9996V18.5243L17.2651 14.7822H14.6094ZM21.4992 19.9996L14.6094 16.1716V19.9996H21.4992Z"
      fill="#0052B4"></path>
    <path d="M14.6094 14.7822L24.0007 19.9996V18.5243L17.2651 14.7822H14.6094Z" fill="#F0F0F0"></path>
    <path d="M14.6094 14.7822L24.0007 19.9996V18.5243L17.2651 14.7822H14.6094Z" fill="#D80027"></path>
    <path d="M4.23474 14.7822L0 17.1349V14.7822H4.23474ZM9.39131 15.4457V19.9996H1.19489L9.39131 15.4457Z"
          fill="#0052B4"></path>
    <path d="M6.73561 14.7822L0 18.5243V19.9996L9.39131 14.7822H6.73561Z" fill="#D80027"></path>
    <path
      d="M5.54133 9.21737L0 6.13881V9.21737H5.54133ZM9.39131 9.21737L0 4V5.47534L6.73561 9.21737H9.39131ZM2.50153 4L9.39131 7.828V4H2.50153Z"
      fill="#0052B4"></path>
    <path d="M9.39131 9.21737L0 4V5.47534L6.73561 9.21737H9.39131Z" fill="#F0F0F0"></path>
    <path d="M9.39131 9.21737L0 4V5.47534L6.73561 9.21737H9.39131Z" fill="#D80027"></path>
    <path d="M19.766 9.21742L24.0007 6.86477V9.21742H19.766ZM14.6094 8.55395V4H22.8058L14.6094 8.55395Z"
          fill="#0052B4"></path>
    <path d="M17.2651 9.21737L24.0007 5.47534V4L14.6094 9.21737H17.2651Z" fill="#D80027"></path>
  </g>
  <defs>
    <clipPath id="clip0_2185_567513">
      <rect y="4" width="24" height="16.0003" rx="1" fill="white"></rect>
    </clipPath>
  </defs>
</svg>
