<svg width="24" height="24" viewBox="0 0 24 24" fill="none" xmlns="http://www.w3.org/2000/svg">
  <g clip-path="url(#1)">
    <path
      d="M23.5861 19.8628H0.413812C0.304066 19.8628 0.198818 19.8192 0.121216 19.7416C0.0436143 19.664 1.24295e-05 19.5587 0 19.449L0 4.55248C1.24295e-05 4.44274 0.0436143 4.33749 0.121216 4.25989C0.198818 4.18229 0.304066 4.13868 0.413812 4.13867H23.5862C23.6959 4.13868 23.8012 4.18229 23.8788 4.25989C23.9564 4.33749 24 4.44274 24 4.55248V19.449C24 19.5588 23.9564 19.664 23.8788 19.7416C23.8011 19.8192 23.6959 19.8628 23.5861 19.8628Z"
      fill="#FF4B55"></path>
    <path
      d="M12.1931 7.312L13.2998 10.6303L16.7976 10.6574C16.9932 10.6589 17.0743 10.9085 16.917 11.0247L14.1031 13.1026L15.1582 16.4376C15.2172 16.6241 15.0049 16.7784 14.8458 16.6646L12 14.6306L9.15424 16.6646C8.99514 16.7784 8.7828 16.6241 8.84177 16.4376L9.89688 13.1026L7.08302 11.0247C6.92566 10.9085 7.0068 10.6589 7.20236 10.6574L10.7002 10.6303L11.8069 7.312C11.8688 7.12647 12.1312 7.12647 12.1931 7.312Z"
      fill="#FFE15A"></path>
  </g>
  <defs>
    <clipPath id="1">
      <rect y="4.13867" width="24" height="15.7241" rx="1" fill="white"></rect>
    </clipPath>
  </defs>
</svg>
